simulation
nRows=62
nColumns=15
endheader
time  TH_x TH_y TH_z SC_y  SC_z  SC_x  AC_y  AC_z  AC_x  GH_y  GH_z  GH_yy  EL_x  PS_y
1.540000  0.000000  0.000000  0.000000  -28.849263  -1.066254  3.435189  67.969181  16.591119  4.213782  60.997498  42.967291  -72.822936  28.356845  0.000000
1.550000  0.000000  0.000000  0.000000  -28.567665  -0.961429  3.593814  67.691389  16.268147  4.124099  60.352678  43.222949  -72.822936  27.733486  0.000000
1.560000  0.000000  0.000000  0.000000  -28.640519  -0.933994  3.646076  67.598648  16.322356  4.100425  60.275646  43.224899  -72.822936  27.718359  0.000000
1.570000  0.000000  0.000000  0.000000  -28.621873  -0.806149  3.749440  67.460153  16.433146  4.045803  60.170023  43.205348  -72.822936  27.621110  0.000000
1.580000  0.000000  0.000000  0.000000  -28.308715  -0.449476  3.884570  66.736652  16.338686  4.119555  60.451672  43.509388  -72.822936  27.227396  0.000000
1.590000  0.000000  0.000000  0.000000  -28.351893  -0.387284  3.957724  66.635948  16.424927  4.067855  60.356262  43.503642  -72.822936  27.168844  0.000000
1.600000  0.000000  0.000000  0.000000  -28.386788  -0.330879  4.041448  66.508798  16.518172  4.017275  60.246724  43.511441  -72.803346  27.075967  0.000000
1.610000  0.000000  0.000000  0.000000  -28.467621  -0.316207  3.986996  66.099918  16.409053  3.902264  60.112299  43.990755  -72.007757  26.362473  0.000000
1.620000  0.000000  0.000000  0.000000  -28.480396  -0.235737  4.095206  65.987551  16.544246  3.824970  59.988079  43.987322  -71.979989  26.337556  0.000000
1.630000  0.000000  0.000000  0.000000  -28.277044  -0.450899  4.040139  66.228097  16.309518  3.879871  58.316866  43.944832  -70.335247  26.174059  0.000000
1.640000  0.000000  0.000000  0.000000  -28.334847  -0.352705  4.139109  66.123185  16.410442  3.855301  58.232848  43.957209  -70.334303  26.091872  0.000000
1.650000  0.000000  0.000000  0.000000  -28.565181  -0.146284  4.279777  65.851548  16.438966  3.966708  58.259434  44.214310  -69.802978  25.457737  0.000000
1.660000  0.000000  0.000000  0.000000  -28.595647  -0.066113  4.374070  65.739264  16.552554  3.906061  58.151229  44.228921  -69.776532  25.420234  0.000000
1.670000  0.000000  0.000000  0.000000  -28.580015  -0.116521  4.342394  65.396982  16.533934  3.703985  57.805798  44.717735  -68.508252  24.899278  0.000000
1.680000  0.000000  0.000000  0.000000  -28.612526  -0.040681  4.438413  65.302965  16.645130  3.659425  57.683036  44.724458  -68.496561  24.858441  0.000000
1.690000  0.000000  0.000000  0.000000  -28.691207  -0.135523  4.455931  65.260971  16.659990  3.607273  57.091870  45.070405  -67.161574  24.264299  0.000000
1.700000  0.000000  0.000000  0.000000  -28.715478  -0.050482  4.549040  65.163469  16.770752  3.556136  56.957147  45.068406  -67.148594  24.247849  0.000000
1.710000  0.000000  0.000000  0.000000  -28.780001  -0.134316  4.517945  65.124933  16.733010  3.513076  56.106945  45.327818  -65.585154  23.956064  0.000000
1.720000  0.000000  0.000000  0.000000  -28.804543  -0.058581  4.615894  65.045934  16.841593  3.483926  55.980653  45.326537  -65.587397  23.904960  0.000000
1.730000  0.000000  0.000000  0.000000  -28.852160  -0.165048  4.581617  65.384404  16.718347  3.723515  54.474244  45.344334  -63.889583  23.657083  0.000000
1.740000  0.000000  0.000000  0.000000  -28.892643  -0.090165  4.686490  65.312207  16.838098  3.690506  54.396714  45.343510  -63.880554  23.608586  0.000000
1.750000  0.000000  0.000000  0.000000  -28.964224  -0.072927  4.754349  65.231166  16.905774  3.680839  54.323701  45.370218  -63.890785  23.596753  0.000000
1.760000  0.000000  0.000000  0.000000  -29.152756  -0.104773  4.986715  65.202980  17.232103  3.560406  54.352407  45.614360  -63.016951  23.074598  0.000000
1.770000  0.000000  0.000000  0.000000  -29.173065  -0.024495  5.069987  65.104392  17.333118  3.510575  54.225727  45.659521  -62.978753  23.034376  0.000000
1.780000  0.000000  0.000000  0.000000  -29.239964  -0.011449  5.136678  65.027533  17.398146  3.504708  54.153030  45.694753  -62.984885  23.027214  0.000000
1.790000  0.000000  0.000000  0.000000  -29.159859  -0.343431  4.935497  65.463431  17.378158  3.480210  52.295686  45.960656  -60.402608  22.800280  0.000000
1.800000  0.000000  0.000000  0.000000  -29.222965  -0.327085  5.005662  65.396129  17.444156  3.482621  52.232761  45.997932  -60.413144  22.792762  0.000000
1.810000  0.000000  0.000000  0.000000  -29.586326  -0.278875  5.219581  65.402248  17.708029  3.482334  52.332655  46.197888  -59.890718  22.423991  0.000000
1.820000  0.000000  0.000000  0.000000  -29.643645  -0.263845  5.287172  65.335741  17.773436  3.480389  52.267766  46.235231  -59.899021  22.419853  0.000000
1.830000  0.000000  0.000000  0.000000  -29.847370  -0.376400  5.367631  65.354639  18.067302  3.188690  52.153310  46.614975  -59.030732  22.234758  0.000000
1.840000  0.000000  0.000000  0.000000  -29.899425  -0.364749  5.435079  65.293485  18.130405  3.192534  52.089828  46.653868  -59.039753  22.229942  0.000000
1.850000  0.000000  0.000000  0.000000  -29.920910  -0.273939  5.535455  65.245602  18.254247  3.153342  52.013348  46.705860  -58.995260  22.204849  0.000000
1.860000  0.000000  0.000000  0.000000  -29.972142  -0.267761  5.604157  65.191994  18.320026  3.157730  51.957724  46.749874  -58.994985  22.203626  0.000000
1.870000  0.000000  0.000000  0.000000  -30.213384  -0.627360  5.400102  66.027332  18.513970  3.487373  49.948515  46.803841  -56.506753  22.025280  0.000000
1.880000  0.000000  0.000000  0.000000  -30.262595  -0.617891  5.466079  65.977723  18.575495  3.494755  49.900512  46.847809  -56.514554  22.028693  0.000000
1.890000  0.000000  0.000000  0.000000  -30.430514  -0.610323  5.627422  65.986233  18.839489  3.378165  49.982374  47.030804  -56.301725  22.090736  0.000000
1.900000  0.000000  0.000000  0.000000  -30.473633  -0.603534  5.692374  65.942999  18.900208  3.387132  49.938452  47.075868  -56.305746  22.092423  0.000000
1.910000  0.000000  0.000000  0.000000  -30.523583  -0.520716  5.787182  65.935147  19.032615  3.336899  49.929604  47.154004  -56.232417  22.103841  0.000000
1.920000  0.000000  0.000000  0.000000  -30.568472  -0.523721  5.853960  65.895051  19.094799  3.348646  49.889428  47.204235  -56.231943  22.110236  0.000000
1.930000  0.000000  0.000000  0.000000  -30.751829  -1.015597  5.577750  66.310483  19.534254  3.183722  49.051590  47.603604  -54.770526  22.006469  0.000000
1.940000  0.000000  0.000000  0.000000  -30.790308  -1.008553  5.641210  66.274489  19.591443  3.198371  49.013073  47.650485  -54.777207  22.013991  0.000000
1.950000  0.000000  0.000000  0.000000  -30.844430  -0.908299  5.729667  66.274425  19.704847  3.173001  49.009607  47.732767  -54.736452  22.065514  0.000000
1.960000  0.000000  0.000000  0.000000  -30.880938  -0.910052  5.793756  66.243968  19.762570  3.190490  48.976816  47.783757  -54.738614  22.078205  0.000000
1.970000  0.000000  0.000000  0.000000  -31.234946  -1.095198  5.779370  66.326223  20.109714  2.853735  49.047261  48.263955  -54.122795  22.047028  0.000000
1.980000  0.000000  0.000000  0.000000  -31.259569  -1.094226  5.839322  66.301037  20.162104  2.873944  49.015326  48.309422  -54.128294  22.058136  0.000000
1.990000  0.000000  0.000000  0.000000  -31.282225  -1.016468  5.917806  66.312689  20.264134  2.857433  49.006959  48.380914  -54.089652  22.135410  0.000000
2.000000  0.000000  0.000000  0.000000  -31.307801  -1.021416  5.974847  66.289349  20.314249  2.876856  48.977963  48.426812  -54.092498  22.149816  0.000000
2.010000  0.000000  0.000000  0.000000  -31.382320  -1.037748  6.085337  66.348856  20.520729  2.791975  49.012704  48.603951  -53.906517  22.431407  0.000000
2.020000  0.000000  0.000000  0.000000  -31.398309  -1.039191  6.138333  66.330645  20.567574  2.810462  48.986729  48.645699  -53.908555  22.439762  0.000000
2.030000  0.000000  0.000000  0.000000  -31.409018  -0.982680  6.199814  66.340648  20.659569  2.778896  48.973842  48.712615  -53.856164  22.492401  0.000000
2.040000  0.000000  0.000000  0.000000  -31.426318  -0.990453  6.247873  66.325074  20.701687  2.797394  48.951334  48.754831  -53.856637  22.505792  0.000000
2.050000  0.000000  0.000000  0.000000  -31.454101  -1.186527  5.796577  66.788536  21.075757  3.018445  47.830428  48.854569  -52.984578  22.787507  0.000000
2.060000  0.000000  0.000000  0.000000  -31.463437  -1.190514  5.839816  66.778977  21.112170  3.039241  47.815109  48.892513  -52.989396  22.799072  0.000000
2.070000  0.000000  0.000000  0.000000  -31.474685  -1.190656  5.881497  66.770246  21.148696  3.056626  47.800935  48.930623  -52.992706  22.814204  0.000000
2.080000  0.000000  0.000000  0.000000  -31.500311  -1.129488  5.923478  66.801597  21.219781  3.033827  47.829826  49.024462  -52.971056  22.946532  0.000000
2.090000  0.000000  0.000000  0.000000  -31.508676  -1.140272  5.959255  66.794371  21.250025  3.051949  47.818018  49.059119  -52.974607  22.962267  0.000000
2.100000  0.000000  0.000000  0.000000  -31.549533  -1.167113  5.991324  66.830751  21.333917  3.006398  47.862810  49.202169  -52.945916  23.219588  0.000000
2.110000  0.000000  0.000000  0.000000  -31.550776  -1.171190  6.022070  66.825976  21.361410  3.019198  47.852931  49.228909  -52.948470  23.229538  0.000000
2.120000  0.000000  0.000000  0.000000  -31.552247  -1.173762  6.050592  66.823246  21.388335  3.029355  47.845254  49.256092  -52.949825  23.244619  0.000000
2.130000  0.000000  0.000000  0.000000  -31.545363  -1.148381  6.076376  66.855387  21.482854  2.942667  47.873635  49.353521  -52.923638  23.464948  0.000000
2.140000  0.000000  0.000000  0.000000  -31.545215  -1.161416  6.097853  66.852808  21.501233  2.955070  47.867279  49.375418  -52.926941  23.476260  0.000000
2.150000  0.000000  0.000000  0.000000  -31.541056  -1.228453  6.101322  66.854123  21.531737  2.930858  47.872122  49.425734  -52.933508  23.594728  0.000000
